<?xml version="1.0" encoding="UTF-8"?>
<svg width="575px" height="100px" viewBox="0 0 575 100" version="1.1" xmlns="http://www.w3.org/2000/svg" xmlns:xlink="http://www.w3.org/1999/xlink">
    <title>drafts-tools-header</title>
    <g id="drafts-tools-header" stroke="none" stroke-width="1" fill="none" fill-rule="evenodd">
        <g id="logo" transform="translate(5.000000, 20.000000)" fill="#30619B" fill-rule="nonzero">
            <path d="M9.16256158,65.8374384 L9.16256158,19.5812808 C9.16256158,17.0511093 7.1114523,15 4.58128079,15 C2.05110927,15 0,17.0511093 0,19.5812808 L0,70.4187192 C0,72.9488907 2.05110927,75 4.58128079,75 L55.4187192,75 C57.9488907,75 60,72.9488907 60,70.4187192 C60,67.8885477 57.9488907,65.8374384 55.4187192,65.8374384 L9.16256158,65.8374384 Z" id="Path-3"></path>
            <path d="M24.1625616,50.8374384 L24.1625616,4.58128079 C24.1625616,2.05110927 22.1114523,2.84217094e-14 19.5812808,2.84217094e-14 C17.0511093,2.84217094e-14 15,2.05110927 15,4.58128079 L15,55.4187192 C15,57.9488907 17.0511093,60 19.5812808,60 L70.4187192,60 C72.9488907,60 75,57.9488907 75,55.4187192 C75,52.8885477 72.9488907,50.8374384 70.4187192,50.8374384 L24.1625616,50.8374384 Z" id="Path-3" transform="translate(45.000000, 30.000000) rotate(-180.000000) translate(-45.000000, -30.000000) "></path>
            <path d="M38.0506329,36.9493671 L38.0506329,23.5253165 C38.0506329,22.1306227 36.9200102,21 35.5253165,21 C34.1306227,21 33,22.1306227 33,23.5253165 L33,39.4746835 C33,40.8693773 34.1306227,42 35.5253165,42 L51.4746835,42 C52.8693773,42 54,40.8693773 54,39.4746835 C54,38.0799898 52.8693773,36.9493671 51.4746835,36.9493671 L38.0506329,36.9493671 Z" id="Path-3" transform="translate(43.500000, 31.500000) rotate(-180.000000) translate(-43.500000, -31.500000) "></path>
        </g>
        <path d="M103,10.6413559 L133.856402,10.6413559 C159.091903,10.6413559 174.02242,25.8589831 174.02242,52.5044068 C174.02242,79.1498305 159.150454,94.7755932 133.856402,94.7755932 L103,94.7755932 L103,10.6413559 Z M118.10617,23.3518644 L118.10617,82.0650847 L132.275523,82.0650847 C149.255327,82.0650847 158.623495,71.7450847 158.623495,52.5627119 C158.623495,33.7301695 149.138225,23.3518644 132.275523,23.3518644 L118.10617,23.3518644 Z M184.561608,94.7755932 L184.561608,32.9722034 L198.555309,32.9722034 L198.555309,43.7586441 L198.848064,43.7586441 C200.955901,36.2372881 206.401149,31.9227119 213.72003,31.9227119 C215.593663,31.9227119 217.233092,32.2725424 218.287011,32.5057627 L218.287011,45.6244068 C217.057439,45.1579661 214.8325,44.8081356 212.373356,44.8081356 C204.117658,44.8081356 199.140819,50.1138983 199.140819,58.8013559 L199.140819,94.7755932 L184.561608,94.7755932 Z M242.702798,95.7667797 C230.699833,95.7667797 221.975727,88.2454237 221.975727,77.1091525 C221.975727,66.1477966 230.465629,59.559322 245.571799,58.6264407 L261.966092,57.6935593 L261.966092,53.2623729 C261.966092,46.7905085 257.574764,43.0589831 250.372985,43.0589831 C243.463961,43.0589831 239.072633,46.3823729 238.135816,51.5132203 L224.610524,51.5132203 C225.254586,39.9688136 235.149713,31.6894915 250.958495,31.6894915 C266.357421,31.6894915 276.36965,39.7938983 276.36965,52.2128814 L276.36965,94.7755932 L262.317399,94.7755932 L262.317399,84.9220339 L262.024643,84.9220339 C258.453029,91.6271186 250.66574,95.7667797 242.702798,95.7667797 Z M247.094126,84.8054237 C255.349824,84.8054237 261.966092,79.3247458 261.966092,71.8616949 L261.966092,67.1389831 L247.621086,68.0135593 C240.59496,68.48 236.554938,71.6284746 236.554938,76.5261017 C236.554938,81.5986441 240.770613,84.8054237 247.094126,84.8054237 Z M292.119881,94.7755932 L292.119881,44.1667797 L283.62998,44.1667797 L283.62998,33.1471186 L292.119881,33.1471186 L292.119881,27.6664407 C292.119881,15.6555932 297.857884,10 311.324625,10 C314.193626,10 317.355383,10.2915254 319.170465,10.6413559 L319.170465,20.7864407 C317.940893,20.6115254 316.242913,20.4366102 314.544932,20.4366102 C308.982583,20.4366102 306.464888,23.060339 306.464888,28.0745763 L306.464888,33.1471186 L318.87771,33.1471186 L318.87771,44.1667797 L306.699092,44.1667797 L306.699092,94.7755932 L292.119881,94.7755932 Z M332.520104,18.5125424 L347.099314,18.5125424 L347.099314,32.9722034 L358.809524,32.9722034 L358.809524,44.1667797 L347.099314,44.1667797 L347.099314,76.2928814 C347.099314,81.3654237 349.441356,83.6976271 354.593848,83.6976271 C355.940523,83.6976271 357.814156,83.5810169 358.750973,83.4061017 L358.750973,94.4840678 C357.170094,94.8338983 354.301093,95.0671186 351.197888,95.0671186 C337.789698,95.0671186 332.520104,90.3444068 332.520104,78.3335593 L332.520104,44.1667797 L323.620345,44.1667797 L323.620345,32.9722034 L332.520104,32.9722034 L332.520104,18.5125424 Z M367.592181,50.6969492 C367.592181,39.3857627 377.487308,31.6894915 392.476376,31.6894915 C407.582546,31.6894915 417.184918,39.7938983 417.536224,51.5132203 L403.952381,51.5132203 C403.36687,45.9159322 399.209746,42.359322 392.476376,42.359322 C386.035761,42.359322 381.761534,45.3911864 381.761534,49.9389831 C381.761534,53.4955932 384.33778,55.9444068 390.836946,57.4020339 L401.141931,59.6759322 C414.023161,62.5328814 419,67.4888136 419,76.4677966 C419,88.1288136 408.226607,96 393.003335,96 C376.784695,96 367.182324,88.3037288 366.011303,76.3511864 L380.356309,76.3511864 C381.468779,82.3566102 385.625903,85.3884746 393.003335,85.3884746 C400.088012,85.3884746 404.47934,82.4732203 404.47934,77.8671186 C404.47934,74.1355932 402.254401,72.0366102 395.755234,70.5789831 L385.45025,68.3050847 C373.564388,65.6813559 367.592181,59.8508475 367.592181,50.6969492 Z" id="Drafts" fill="#30619B" fill-rule="nonzero"></path>
        <path d="M454.572949,95.4668489 L454.572949,62.1449077 L466.209091,62.1449077 L466.209091,57 L437,57 L437,62.1449077 L448.662528,62.1449077 L448.662528,95.4668489 L454.572949,95.4668489 Z M475.47051,96 C483.412639,96 488.637029,90.4818865 488.637029,81.4449761 C488.637029,72.4347232 483.386253,66.9166097 475.47051,66.9166097 C467.554767,66.9166097 462.303991,72.4347232 462.303991,81.4449761 C462.303991,90.4818865 467.528381,96 475.47051,96 Z M475.47051,91.2549556 C471.011308,91.2549556 468.108869,87.6828435 468.108869,81.4449761 C468.108869,75.2337662 471.011308,71.6616541 475.47051,71.6616541 C479.929712,71.6616541 482.832151,75.2337662 482.832151,81.4449761 C482.832151,87.6828435 479.956098,91.2549556 475.47051,91.2549556 Z M504.969845,96 C512.911973,96 518.136364,90.4818865 518.136364,81.4449761 C518.136364,72.4347232 512.885588,66.9166097 504.969845,66.9166097 C497.054102,66.9166097 491.803326,72.4347232 491.803326,81.4449761 C491.803326,90.4818865 497.027716,96 504.969845,96 Z M504.969845,91.2549556 C500.510643,91.2549556 497.608204,87.6828435 497.608204,81.4449761 C497.608204,75.2337662 500.510643,71.6616541 504.969845,71.6616541 C509.429047,71.6616541 512.331486,75.2337662 512.331486,81.4449761 C512.331486,87.6828435 509.455432,91.2549556 504.969845,91.2549556 Z M528.453215,95.4668489 L528.453215,57 L522.75388,57 L522.75388,95.4668489 L528.453215,95.4668489 Z M544.733259,96 C551.27694,96 556,92.481203 556,87.3629528 C556,83.3110048 553.836364,81.0717703 548.163415,79.7388927 L543.651441,78.6992481 C540.643459,78.0061517 539.37694,76.8065619 539.37694,75.0471634 C539.37694,72.8079289 541.435033,71.2884484 544.522173,71.2884484 C547.714856,71.2884484 549.693792,72.9945318 550.010421,75.7136022 L555.366741,75.7136022 C555.18204,70.5420369 550.986696,66.9166097 544.522173,66.9166097 C538.136807,66.9166097 533.809534,70.355434 533.809534,75.367054 C533.809534,79.4456596 536.421729,82.0047847 541.698891,83.2310321 L546.210865,84.2973342 C549.245233,84.9904306 550.274279,86.0567327 550.274279,87.8694463 C550.274279,90.1619959 548.163415,91.6015038 544.733259,91.6015038 C541.250333,91.6015038 539.271397,90.1619959 538.743681,87.2296651 L533.097118,87.2296651 C533.624834,92.5611757 537.793792,96 544.733259,96 Z" id="Tools" fill="#30619B" fill-rule="nonzero" opacity="0.488723028"></path>
    </g>
</svg>