<?xml version="1.0" encoding="UTF-8"?>
<svg width="628px" height="100px" viewBox="0 0 628 100" version="1.1" xmlns="http://www.w3.org/2000/svg" xmlns:xlink="http://www.w3.org/1999/xlink">
    <title>drafts-capture-header</title>
    <g id="drafts-capture-header" stroke="none" stroke-width="1" fill="none" fill-rule="evenodd">
        <g id="logo" transform="translate(5.000000, 17.000000)" fill="#30619B" fill-rule="nonzero">
            <path d="M9.16256158,65.8374384 L9.16256158,19.5812808 C9.16256158,17.0511093 7.1114523,15 4.58128079,15 C2.05110927,15 0,17.0511093 0,19.5812808 L0,70.4187192 C0,72.9488907 2.05110927,75 4.58128079,75 L55.4187192,75 C57.9488907,75 60,72.9488907 60,70.4187192 C60,67.8885477 57.9488907,65.8374384 55.4187192,65.8374384 L9.16256158,65.8374384 Z" id="Path-3"></path>
            <path d="M24.1625616,50.8374384 L24.1625616,4.58128079 C24.1625616,2.05110927 22.1114523,2.84217094e-14 19.5812808,2.84217094e-14 C17.0511093,2.84217094e-14 15,2.05110927 15,4.58128079 L15,55.4187192 C15,57.9488907 17.0511093,60 19.5812808,60 L70.4187192,60 C72.9488907,60 75,57.9488907 75,55.4187192 C75,52.8885477 72.9488907,50.8374384 70.4187192,50.8374384 L24.1625616,50.8374384 Z" id="Path-3" transform="translate(45.000000, 30.000000) rotate(-180.000000) translate(-45.000000, -30.000000) "></path>
            <path d="M38.0506329,36.9493671 L38.0506329,23.5253165 C38.0506329,22.1306227 36.9200102,21 35.5253165,21 C34.1306227,21 33,22.1306227 33,23.5253165 L33,39.4746835 C33,40.8693773 34.1306227,42 35.5253165,42 L51.4746835,42 C52.8693773,42 54,40.8693773 54,39.4746835 C54,38.0799898 52.8693773,36.9493671 51.4746835,36.9493671 L38.0506329,36.9493671 Z" id="Path-3" transform="translate(43.500000, 31.500000) rotate(-180.000000) translate(-43.500000, -31.500000) "></path>
        </g>
        <path d="M103,7.64135593 L133.856402,7.64135593 C159.091903,7.64135593 174.02242,22.8589831 174.02242,49.5044068 C174.02242,76.1498305 159.150454,91.7755932 133.856402,91.7755932 L103,91.7755932 L103,7.64135593 Z M118.10617,20.3518644 L118.10617,79.0650847 L132.275523,79.0650847 C149.255327,79.0650847 158.623495,68.7450847 158.623495,49.5627119 C158.623495,30.7301695 149.138225,20.3518644 132.275523,20.3518644 L118.10617,20.3518644 Z M184.561608,91.7755932 L184.561608,29.9722034 L198.555309,29.9722034 L198.555309,40.7586441 L198.848064,40.7586441 C200.955901,33.2372881 206.401149,28.9227119 213.72003,28.9227119 C215.593663,28.9227119 217.233092,29.2725424 218.287011,29.5057627 L218.287011,42.6244068 C217.057439,42.1579661 214.8325,41.8081356 212.373356,41.8081356 C204.117658,41.8081356 199.140819,47.1138983 199.140819,55.8013559 L199.140819,91.7755932 L184.561608,91.7755932 Z M242.702798,92.7667797 C230.699833,92.7667797 221.975727,85.2454237 221.975727,74.1091525 C221.975727,63.1477966 230.465629,56.559322 245.571799,55.6264407 L261.966092,54.6935593 L261.966092,50.2623729 C261.966092,43.7905085 257.574764,40.0589831 250.372985,40.0589831 C243.463961,40.0589831 239.072633,43.3823729 238.135816,48.5132203 L224.610524,48.5132203 C225.254586,36.9688136 235.149713,28.6894915 250.958495,28.6894915 C266.357421,28.6894915 276.36965,36.7938983 276.36965,49.2128814 L276.36965,91.7755932 L262.317399,91.7755932 L262.317399,81.9220339 L262.024643,81.9220339 C258.453029,88.6271186 250.66574,92.7667797 242.702798,92.7667797 Z M247.094126,81.8054237 C255.349824,81.8054237 261.966092,76.3247458 261.966092,68.8616949 L261.966092,64.1389831 L247.621086,65.0135593 C240.59496,65.48 236.554938,68.6284746 236.554938,73.5261017 C236.554938,78.5986441 240.770613,81.8054237 247.094126,81.8054237 Z M292.119881,91.7755932 L292.119881,41.1667797 L283.62998,41.1667797 L283.62998,30.1471186 L292.119881,30.1471186 L292.119881,24.6664407 C292.119881,12.6555932 297.857884,7 311.324625,7 C314.193626,7 317.355383,7.29152542 319.170465,7.64135593 L319.170465,17.7864407 C317.940893,17.6115254 316.242913,17.4366102 314.544932,17.4366102 C308.982583,17.4366102 306.464888,20.060339 306.464888,25.0745763 L306.464888,30.1471186 L318.87771,30.1471186 L318.87771,41.1667797 L306.699092,41.1667797 L306.699092,91.7755932 L292.119881,91.7755932 Z M332.520104,15.5125424 L347.099314,15.5125424 L347.099314,29.9722034 L358.809524,29.9722034 L358.809524,41.1667797 L347.099314,41.1667797 L347.099314,73.2928814 C347.099314,78.3654237 349.441356,80.6976271 354.593848,80.6976271 C355.940523,80.6976271 357.814156,80.5810169 358.750973,80.4061017 L358.750973,91.4840678 C357.170094,91.8338983 354.301093,92.0671186 351.197888,92.0671186 C337.789698,92.0671186 332.520104,87.3444068 332.520104,75.3335593 L332.520104,41.1667797 L323.620345,41.1667797 L323.620345,29.9722034 L332.520104,29.9722034 L332.520104,15.5125424 Z M367.592181,47.6969492 C367.592181,36.3857627 377.487308,28.6894915 392.476376,28.6894915 C407.582546,28.6894915 417.184918,36.7938983 417.536224,48.5132203 L403.952381,48.5132203 C403.36687,42.9159322 399.209746,39.359322 392.476376,39.359322 C386.035761,39.359322 381.761534,42.3911864 381.761534,46.9389831 C381.761534,50.4955932 384.33778,52.9444068 390.836946,54.4020339 L401.141931,56.6759322 C414.023161,59.5328814 419,64.4888136 419,73.4677966 C419,85.1288136 408.226607,93 393.003335,93 C376.784695,93 367.182324,85.3037288 366.011303,73.3511864 L380.356309,73.3511864 C381.468779,79.3566102 385.625903,82.3884746 393.003335,82.3884746 C400.088012,82.3884746 404.47934,79.4732203 404.47934,74.8671186 C404.47934,71.1355932 402.254401,69.0366102 395.755234,67.5789831 L385.45025,65.3050847 C373.564388,62.6813559 367.592181,56.8508475 367.592181,47.6969492 Z" id="Drafts" fill="#30619B" fill-rule="nonzero"></path>
        <path d="M449.775391,93.6328125 C458.186523,93.6328125 464.488281,88.5439453 465.674805,80.9765625 L465.701172,80.7128906 L459.847656,80.7128906 L459.768555,80.9501953 C458.344727,85.7753906 454.837891,88.4121094 449.775391,88.4121094 C442.735352,88.4121094 438.173828,82.7695312 438.173828,73.9628906 L438.173828,73.9365234 C438.173828,65.1298828 442.708984,59.5400391 449.775391,59.5400391 C454.890625,59.5400391 458.423828,62.2558594 459.689453,66.7119141 L459.847656,67.2392578 L465.701172,67.2392578 L465.648438,67.0019531 C464.461914,59.4873047 458.160156,54.3193359 449.775391,54.3193359 C438.991211,54.3193359 432.135742,61.8603516 432.135742,73.9365234 L432.135742,73.9628906 C432.135742,86.0390625 438.991211,93.6328125 449.775391,93.6328125 Z M478.462891,93.5009766 C482.12793,93.5009766 485.344727,91.6025391 486.953125,88.6230469 L487.058594,88.6230469 L487.058594,93 L492.780273,93 L492.780273,73.8837891 C492.780273,68.3203125 488.482422,64.734375 481.706055,64.734375 C474.876953,64.734375 470.737305,68.3994141 470.341797,73.171875 L470.31543,73.4619141 L475.694336,73.4619141 L475.74707,73.2246094 C476.22168,71.0097656 478.251953,69.4541016 481.547852,69.4541016 C485.081055,69.4541016 487.058594,71.2998047 487.058594,74.3583984 L487.058594,76.4414062 L479.517578,76.8896484 C472.952148,77.2851562 469.208008,80.2382812 469.208008,85.0634766 L469.208008,85.1162109 C469.208008,90.0996094 472.925781,93.5009766 478.462891,93.5009766 Z M480.018555,88.9394531 C476.959961,88.9394531 474.956055,87.4101562 474.956055,84.984375 L474.956055,84.9316406 C474.956055,82.5849609 476.854492,81.0820312 480.282227,80.8710938 L487.058594,80.4492188 L487.058594,82.6113281 C487.058594,86.2236328 484.026367,88.9394531 480.018555,88.9394531 Z M503.986328,102.228516 L503.986328,88.3330078 L504.118164,88.3330078 C505.75293,91.5498047 508.943359,93.5537109 512.87207,93.5537109 C519.833008,93.5537109 524.394531,87.9902344 524.394531,79.1572266 L524.394531,79.1308594 C524.394531,70.2714844 519.859375,64.734375 512.792969,64.734375 C508.837891,64.734375 505.779297,66.7382812 504.118164,70.0341797 L503.986328,70.0341797 L503.986328,65.2617188 L498.291016,65.2617188 L498.291016,102.228516 L503.986328,102.228516 Z M511.316406,88.6494141 C507.018555,88.6494141 503.959961,84.9052734 503.959961,79.1572266 L503.959961,79.1308594 C503.959961,73.3564453 506.992188,69.6123047 511.316406,69.6123047 C515.772461,69.6123047 518.59375,73.2246094 518.59375,79.1308594 L518.59375,79.1572266 C518.59375,85.0107422 515.798828,88.6494141 511.316406,88.6494141 Z M538.527344,93.5537109 C539.6875,93.5537109 540.768555,93.421875 541.427734,93.3164062 L541.427734,88.9130859 C541.005859,88.9658203 540.504883,89.0185547 539.898438,89.0185547 C537.499023,89.0185547 536.233398,88.1748047 536.233398,85.3535156 L536.233398,69.796875 L541.427734,69.796875 L541.427734,65.2617188 L536.233398,65.2617188 L536.233398,58.0371094 L530.40625,58.0371094 L530.40625,65.2617188 L526.424805,65.2617188 L526.424805,69.796875 L530.40625,69.796875 L530.40625,85.6962891 C530.40625,91.2333984 533.042969,93.5537109 538.527344,93.5537109 Z M555.560547,93.5537109 C559.779297,93.5537109 562.600586,91.6289062 564.050781,88.8339844 L564.182617,88.8339844 L564.182617,93 L569.904297,93 L569.904297,65.2617188 L564.182617,65.2617188 L564.182617,81.4511719 C564.182617,85.7753906 561.598633,88.6494141 557.59082,88.6494141 C553.635742,88.6494141 551.68457,86.3291016 551.68457,82.1367188 L551.68457,65.2617188 L545.989258,65.2617188 L545.989258,83.2441406 C545.989258,89.625 549.469727,93.5537109 555.560547,93.5537109 Z M581.21582,93 L581.21582,76.4677734 C581.21582,72.328125 583.483398,69.9287109 587.148438,69.9287109 C588.255859,69.9287109 589.257812,70.0605469 589.706055,70.2451172 L589.706055,64.9453125 C589.257812,64.8662109 588.545898,64.734375 587.728516,64.734375 C584.564453,64.734375 582.244141,66.7646484 581.347656,70.0078125 L581.21582,70.0078125 L581.21582,65.2617188 L575.520508,65.2617188 L575.520508,93 L581.21582,93 Z M603.891602,93.5537109 C610.615234,93.5537109 614.886719,89.5458984 615.783203,85.1425781 L615.835938,84.8525391 L610.430664,84.8525391 L610.351562,85.0634766 C609.639648,87.1464844 607.398438,88.8867188 604.023438,88.8867188 C599.488281,88.8867188 596.614258,85.828125 596.508789,80.5810547 L616.152344,80.5810547 L616.152344,78.65625 C616.152344,70.3242188 611.379883,64.734375 603.601562,64.734375 C595.823242,64.734375 590.813477,70.5351562 590.813477,79.2099609 L590.813477,79.2363281 C590.813477,87.9902344 595.744141,93.5537109 603.891602,93.5537109 Z M610.509766,76.546875 L596.587891,76.546875 C597.088867,71.90625 599.936523,69.4013672 603.62793,69.4013672 C607.345703,69.4013672 610.035156,71.7480469 610.509766,76.546875 Z" id="Capture" fill="#99B1CE" fill-rule="nonzero"></path>
    </g>
</svg>