<?xml version="1.0" encoding="UTF-8"?>
<svg width="48px" height="48px" viewBox="0 0 48 48" version="1.1" xmlns="http://www.w3.org/2000/svg" xmlns:xlink="http://www.w3.org/1999/xlink">
    <!-- Generator: Sketch 50.2 (55047) - http://www.bohemiancoding.com/sketch -->
    <title>trusted</title>
    <desc>Created with Sketch.</desc>
    <defs>
        <polygon id="path-1" points="24.5 40.8163783 18.9353905 44.2674053 15.8418108 38.4964236 9.2972042 38.7027958 9.50357645 32.1581892 3.73259473 29.0646095 7.18362165 23.5 3.73259473 17.9353905 9.50357645 14.8418108 9.2972042 8.2972042 15.8418108 8.50357645 18.9353905 2.73259473 24.5 6.18362165 30.0646095 2.73259473 33.1581892 8.50357645 39.7027958 8.2972042 39.4964236 14.8418108 45.2674053 17.9353905 41.8163783 23.5 45.2674053 29.0646095 39.4964236 32.1581892 39.7027958 38.7027958 33.1581892 38.4964236 30.0646095 44.2674053"></polygon>
        <filter x="-4.7%" y="-2.3%" width="109.3%" height="109.3%" filterUnits="objectBoundingBox" id="filter-2">
            <feOffset dx="0" dy="1" in="SourceAlpha" result="shadowOffsetOuter1"></feOffset>
            <feGaussianBlur stdDeviation="0.5" in="shadowOffsetOuter1" result="shadowBlurOuter1"></feGaussianBlur>
            <feColorMatrix values="0 0 0 0 0   0 0 0 0 0   0 0 0 0 0  0 0 0 0.2440274 0" type="matrix" in="shadowBlurOuter1"></feColorMatrix>
        </filter>
    </defs>
    <g id="trusted" stroke="none" stroke-width="1" fill="none" fill-rule="evenodd">
        <g id="Star">
            <use fill="black" fill-opacity="1" filter="url(#filter-2)" xlink:href="#path-1"></use>
            <use fill="#7ED321" fill-rule="evenodd" xlink:href="#path-1"></use>
        </g>
        <path d="M20.7837571,33.9691661 L21.5897412,34.5753666 C22.0348739,34.9101619 22.6391995,34.8059301 22.9442576,34.3352801 L23.4927898,33.488993 L36.2882487,18.1034493 C36.2882487,18.1034493 37.9669325,16.4247655 36.2882487,14.7460817 C34.609565,13.0673979 32.9308812,14.7460817 32.9308812,14.7460817 L21.8541033,29.6267044 L16.284253,23.6590077 C15.9082402,23.2561368 15.1855447,22.7613584 14.670469,22.6035424 C14.670469,22.6035424 13.4278107,21.8975398 12.5064684,22.9295454 C11.5851261,23.9615509 12.2024356,25.061163 12.2024356,25.061163 C12.3703483,25.584388 12.8309479,26.3206114 13.2265437,26.7010727 L20.7837571,33.9691661 Z" id="Path-16" fill="#FFFFFF"></path>
    </g>
</svg>