<?xml version="1.0" encoding="UTF-8"?>
<svg width="651px" height="108px" viewBox="0 0 651 108" version="1.1" xmlns="http://www.w3.org/2000/svg" xmlns:xlink="http://www.w3.org/1999/xlink">
    <!-- Generator: Sketch 57 (83077) - https://sketch.com -->
    <title>drafts-directory-header</title>
    <desc>Created with Sketch.</desc>
    <g id="drafts-directory-header" stroke="none" stroke-width="1" fill="none" fill-rule="evenodd">
        <g id="logo" transform="translate(5.000000, 20.000000)" fill="#30619B" fill-rule="nonzero">
            <path d="M9.16256158,65.8374384 L9.16256158,19.5812808 C9.16256158,17.0511093 7.1114523,15 4.58128079,15 C2.05110927,15 0,17.0511093 0,19.5812808 L0,70.4187192 C0,72.9488907 2.05110927,75 4.58128079,75 L55.4187192,75 C57.9488907,75 60,72.9488907 60,70.4187192 C60,67.8885477 57.9488907,65.8374384 55.4187192,65.8374384 L9.16256158,65.8374384 Z" id="Path-3"></path>
            <path d="M24.1625616,50.8374384 L24.1625616,4.58128079 C24.1625616,2.05110927 22.1114523,2.84217094e-14 19.5812808,2.84217094e-14 C17.0511093,2.84217094e-14 15,2.05110927 15,4.58128079 L15,55.4187192 C15,57.9488907 17.0511093,60 19.5812808,60 L70.4187192,60 C72.9488907,60 75,57.9488907 75,55.4187192 C75,52.8885477 72.9488907,50.8374384 70.4187192,50.8374384 L24.1625616,50.8374384 Z" id="Path-3" transform="translate(45.000000, 30.000000) rotate(-180.000000) translate(-45.000000, -30.000000) "></path>
            <path d="M38.0506329,36.9493671 L38.0506329,23.5253165 C38.0506329,22.1306227 36.9200102,21 35.5253165,21 C34.1306227,21 33,22.1306227 33,23.5253165 L33,39.4746835 C33,40.8693773 34.1306227,42 35.5253165,42 L51.4746835,42 C52.8693773,42 54,40.8693773 54,39.4746835 C54,38.0799898 52.8693773,36.9493671 51.4746835,36.9493671 L38.0506329,36.9493671 Z" id="Path-3" transform="translate(43.500000, 31.500000) rotate(-180.000000) translate(-43.500000, -31.500000) "></path>
        </g>
        <path d="M103,10.6413559 L133.856402,10.6413559 C159.091903,10.6413559 174.02242,25.8589831 174.02242,52.5044068 C174.02242,79.1498305 159.150454,94.7755932 133.856402,94.7755932 L103,94.7755932 L103,10.6413559 Z M118.10617,23.3518644 L118.10617,82.0650847 L132.275523,82.0650847 C149.255327,82.0650847 158.623495,71.7450847 158.623495,52.5627119 C158.623495,33.7301695 149.138225,23.3518644 132.275523,23.3518644 L118.10617,23.3518644 Z M184.561608,94.7755932 L184.561608,32.9722034 L198.555309,32.9722034 L198.555309,43.7586441 L198.848064,43.7586441 C200.955901,36.2372881 206.401149,31.9227119 213.72003,31.9227119 C215.593663,31.9227119 217.233092,32.2725424 218.287011,32.5057627 L218.287011,45.6244068 C217.057439,45.1579661 214.8325,44.8081356 212.373356,44.8081356 C204.117658,44.8081356 199.140819,50.1138983 199.140819,58.8013559 L199.140819,94.7755932 L184.561608,94.7755932 Z M242.702798,95.7667797 C230.699833,95.7667797 221.975727,88.2454237 221.975727,77.1091525 C221.975727,66.1477966 230.465629,59.559322 245.571799,58.6264407 L261.966092,57.6935593 L261.966092,53.2623729 C261.966092,46.7905085 257.574764,43.0589831 250.372985,43.0589831 C243.463961,43.0589831 239.072633,46.3823729 238.135816,51.5132203 L224.610524,51.5132203 C225.254586,39.9688136 235.149713,31.6894915 250.958495,31.6894915 C266.357421,31.6894915 276.36965,39.7938983 276.36965,52.2128814 L276.36965,94.7755932 L262.317399,94.7755932 L262.317399,84.9220339 L262.024643,84.9220339 C258.453029,91.6271186 250.66574,95.7667797 242.702798,95.7667797 Z M247.094126,84.8054237 C255.349824,84.8054237 261.966092,79.3247458 261.966092,71.8616949 L261.966092,67.1389831 L247.621086,68.0135593 C240.59496,68.48 236.554938,71.6284746 236.554938,76.5261017 C236.554938,81.5986441 240.770613,84.8054237 247.094126,84.8054237 Z M292.119881,94.7755932 L292.119881,44.1667797 L283.62998,44.1667797 L283.62998,33.1471186 L292.119881,33.1471186 L292.119881,27.6664407 C292.119881,15.6555932 297.857884,10 311.324625,10 C314.193626,10 317.355383,10.2915254 319.170465,10.6413559 L319.170465,20.7864407 C317.940893,20.6115254 316.242913,20.4366102 314.544932,20.4366102 C308.982583,20.4366102 306.464888,23.060339 306.464888,28.0745763 L306.464888,33.1471186 L318.87771,33.1471186 L318.87771,44.1667797 L306.699092,44.1667797 L306.699092,94.7755932 L292.119881,94.7755932 Z M332.520104,18.5125424 L347.099314,18.5125424 L347.099314,32.9722034 L358.809524,32.9722034 L358.809524,44.1667797 L347.099314,44.1667797 L347.099314,76.2928814 C347.099314,81.3654237 349.441356,83.6976271 354.593848,83.6976271 C355.940523,83.6976271 357.814156,83.5810169 358.750973,83.4061017 L358.750973,94.4840678 C357.170094,94.8338983 354.301093,95.0671186 351.197888,95.0671186 C337.789698,95.0671186 332.520104,90.3444068 332.520104,78.3335593 L332.520104,44.1667797 L323.620345,44.1667797 L323.620345,32.9722034 L332.520104,32.9722034 L332.520104,18.5125424 Z M367.592181,50.6969492 C367.592181,39.3857627 377.487308,31.6894915 392.476376,31.6894915 C407.582546,31.6894915 417.184918,39.7938983 417.536224,51.5132203 L403.952381,51.5132203 C403.36687,45.9159322 399.209746,42.359322 392.476376,42.359322 C386.035761,42.359322 381.761534,45.3911864 381.761534,49.9389831 C381.761534,53.4955932 384.33778,55.9444068 390.836946,57.4020339 L401.141931,59.6759322 C414.023161,62.5328814 419,67.4888136 419,76.4677966 C419,88.1288136 408.226607,96 393.003335,96 C376.784695,96 367.182324,88.3037288 366.011303,76.3511864 L380.356309,76.3511864 C381.468779,82.3566102 385.625903,85.3884746 393.003335,85.3884746 C400.088012,85.3884746 404.47934,82.4732203 404.47934,77.8671186 C404.47934,74.1355932 402.254401,72.0366102 395.755234,70.5789831 L385.45025,68.3050847 C373.564388,65.6813559 367.592181,59.8508475 367.592181,50.6969492 Z" id="Drafts" fill="#30619B" fill-rule="nonzero"></path>
        <path d="M435.506836,56.9521484 L448.927734,56.9521484 C460.239258,56.9521484 466.936523,63.9130859 466.936523,75.9101562 C466.936523,87.9335938 460.265625,95 448.927734,95 L435.506836,95 L435.506836,56.9521484 Z M441.413086,62.0410156 L441.413086,89.8847656 L448.374023,89.8847656 C456.442383,89.8847656 460.898438,84.9541016 460.898438,75.9628906 C460.898438,66.9980469 456.416016,62.0410156 448.374023,62.0410156 L441.413086,62.0410156 Z M474.925781,62.7792969 C473.106445,62.7792969 471.629883,61.3027344 471.629883,59.5097656 C471.629883,57.6904297 473.106445,56.2402344 474.925781,56.2402344 C476.745117,56.2402344 478.195312,57.6904297 478.195312,59.5097656 C478.195312,61.3027344 476.745117,62.7792969 474.925781,62.7792969 Z M472.078125,95 L472.078125,67.2617188 L477.773438,67.2617188 L477.773438,95 L472.078125,95 Z M483.600586,95 L483.600586,67.2617188 L489.032227,67.2617188 L489.032227,71.9814453 L489.164062,71.9814453 C490.086914,68.7382812 492.56543,66.8134766 495.834961,66.8134766 C496.652344,66.8134766 497.364258,66.9453125 497.786133,67.0244141 L497.786133,72.3242188 C497.337891,72.1396484 496.335938,72.0078125 495.228516,72.0078125 C491.563477,72.0078125 489.295898,74.4599609 489.295898,78.3886719 L489.295898,95 L483.600586,95 Z M518.510742,86.8525391 L523.916016,86.8525391 C523.125,91.9150391 518.326172,95.5273438 511.97168,95.5273438 C503.824219,95.5273438 498.893555,90.0166016 498.893555,81.2626953 C498.893555,72.5615234 503.90332,66.7607422 511.734375,66.7607422 C519.433594,66.7607422 524.232422,72.1923828 524.232422,80.6035156 L524.232422,82.5546875 L504.641602,82.5546875 L504.641602,82.8974609 C504.641602,87.7226562 507.541992,90.9130859 512.103516,90.9130859 C515.34668,90.9130859 517.746094,89.2783203 518.510742,86.8525391 Z M511.734375,71.3486328 C507.75293,71.3486328 504.958008,74.3808594 504.667969,78.5732422 L518.537109,78.5732422 C518.405273,74.328125 515.71582,71.3486328 511.734375,71.3486328 Z M552.445312,76.8066406 L547.013672,76.8066406 C546.433594,73.8535156 544.21875,71.5068359 540.500977,71.5068359 C536.097656,71.5068359 533.197266,75.171875 533.197266,81.1308594 C533.197266,87.2216797 536.124023,90.7548828 540.553711,90.7548828 C544.060547,90.7548828 546.354492,88.8300781 547.013672,85.6132812 L552.498047,85.6132812 C551.891602,91.5195312 547.171875,95.5273438 540.500977,95.5273438 C532.564453,95.5273438 527.396484,90.0957031 527.396484,81.1308594 C527.396484,72.3242188 532.564453,66.7607422 540.448242,66.7607422 C547.59375,66.7607422 551.944336,71.3486328 552.445312,76.8066406 Z M558.193359,60.6962891 L563.915039,60.6962891 L563.915039,67.2617188 L569.188477,67.2617188 L569.188477,71.7705078 L563.915039,71.7705078 L563.915039,87.0634766 C563.915039,89.4628906 564.969727,90.5439453 567.290039,90.5439453 C567.870117,90.5439453 568.792969,90.4912109 569.162109,90.4121094 L569.162109,94.9208984 C568.529297,95.0791016 567.263672,95.1845703 565.998047,95.1845703 C560.381836,95.1845703 558.193359,93.0488281 558.193359,87.6962891 L558.193359,71.7705078 L554.15918,71.7705078 L554.15918,67.2617188 L558.193359,67.2617188 L558.193359,60.6962891 Z M585.114258,95.5273438 C577.177734,95.5273438 571.957031,90.0693359 571.957031,81.1308594 C571.957031,72.21875 577.204102,66.7607422 585.114258,66.7607422 C593.024414,66.7607422 598.271484,72.21875 598.271484,81.1308594 C598.271484,90.0693359 593.050781,95.5273438 585.114258,95.5273438 Z M585.114258,90.8339844 C589.59668,90.8339844 592.470703,87.3007812 592.470703,81.1308594 C592.470703,74.9873047 589.570312,71.4541016 585.114258,71.4541016 C580.658203,71.4541016 577.757812,74.9873047 577.757812,81.1308594 C577.757812,87.3007812 580.658203,90.8339844 585.114258,90.8339844 Z M602.674805,95 L602.674805,67.2617188 L608.106445,67.2617188 L608.106445,71.9814453 L608.238281,71.9814453 C609.161133,68.7382812 611.639648,66.8134766 614.90918,66.8134766 C615.726562,66.8134766 616.438477,66.9453125 616.860352,67.0244141 L616.860352,72.3242188 C616.412109,72.1396484 615.410156,72.0078125 614.302734,72.0078125 C610.637695,72.0078125 608.370117,74.4599609 608.370117,78.3886719 L608.370117,95 L602.674805,95 Z M623.162109,105.335938 C622.6875,105.335938 621.263672,105.283203 620.841797,105.204102 L620.841797,100.589844 C621.263672,100.695312 622.212891,100.695312 622.6875,100.695312 C625.324219,100.695312 626.748047,99.5878906 627.618164,96.7402344 C627.618164,96.6875 628.119141,95.0527344 628.119141,95.0263672 L618.099609,67.2617188 L624.269531,67.2617188 L631.283203,89.8320312 L631.388672,89.8320312 L638.402344,67.2617188 L644.414062,67.2617188 L634.025391,96.4501953 C631.652344,103.173828 628.910156,105.335938 623.162109,105.335938 Z" id="Directory" fill="#30619B" fill-rule="nonzero" opacity="0.488723028"></path>
    </g>
</svg>